# xmcd CD database file
#
# Track frame offsets:
#	150
#	15165
#	31580
#	47560
#	62997
#	77312
#	93872
#	113120
#	127750
#	140877
#	151220
#	161837
#	174140
#	187355
#	204290
#	220282
#	234370
#	245697
#	260872
#	272045
#
# Disc length: 3863 seconds
#
# Revision: 2
# Processed by: cddbd v1.4b41PL1 Copyright (c) Steve Scherf et al.
# Submitted via: Feurio! 1.50.2ß - http://www.feurio.com
#
DISCID=0a0f1514
DTITLE=Judita Cerovska - Akropolis Adieu
DYEAR=1900
DGENRE=
TTITLE0=Je po desti
TTITLE1=Co dal
TTITLE2=Muj ideal
TTITLE3=Orion
TTITLE4=Dominiku
TTITLE5=Je vitr to vi a mlci dal
TTITLE6=Kazdy jednou potka velkou lasku
TTITLE7=Pozdrav od dobre zname
TTITLE8=To se mi nezda
TTITLE9=Do zvonu bije cas
TTITLE10=Dlouha bila noc
TTITLE11=Muz a zena
TTITLE12=Ten zivot muj
TTITLE13=Hej, konicku
TTITLE14=Akropolis adieu
TTITLE15=Carovny nadherny sad
TTITLE16=Muj zivot je taxi
TTITLE17=Ti dva - to jsme my
TTITLE18=Maly vuz
TTITLE19=Sam pod svou hvezdou
EXTD=
EXTT0=
EXTT1=
EXTT2=
EXTT3=
EXTT4=
EXTT5=
EXTT6=
EXTT7=
EXTT8=
EXTT9=
EXTT10=
EXTT11=
EXTT12=
EXTT13=
EXTT14=
EXTT15=
EXTT16=
EXTT17=
EXTT18=
EXTT19=
PLAYORDER=
